<?xml version="1.0" encoding="UTF-8"?>
<svg version="1.1" xmlns="http://www.w3.org/2000/svg" width="235" height="297">
<path d="M0 0 C0.9737558 -0.00571014 1.9475116 -0.01142029 2.95077515 -0.01730347 C4.02849686 -0.01842133 5.10621857 -0.01953918 6.21659851 -0.02069092 C7.90964111 -0.02813828 7.90964111 -0.02813828 9.6368866 -0.03573608 C13.39873352 -0.05042302 17.16053807 -0.05717597 20.92240906 -0.06268311 C23.54107667 -0.06843601 26.15974427 -0.07419373 28.77841187 -0.07995605 C33.58509065 -0.08954553 38.39176034 -0.09542873 43.19844753 -0.09845281 C50.22673615 -0.10289986 57.25482701 -0.12027738 64.2830556 -0.1494534 C70.39816894 -0.17393768 76.51320278 -0.18141037 82.62836266 -0.18312836 C85.21034498 -0.18612916 87.79232701 -0.19406908 90.37427711 -0.20731354 C105.36291538 -0.27861216 119.76208829 0.26778133 134.49662781 3.14044189 C135.64919571 3.36342957 136.80176361 3.58641724 137.98925781 3.81616211 C146.63576178 5.61697682 154.56135361 9.37066044 162.49662781 13.14044189 C163.985495 13.83460205 163.985495 13.83460205 165.50444031 14.54278564 C186.47985159 25.09164409 200.88992643 44.80654283 208.48881531 66.59356689 C211.10480081 75.80021354 211.83498302 84.38134338 211.80912781 93.95294189 C211.82524109 95.13436768 211.84135437 96.31579346 211.85795593 97.53302002 C211.86446268 109.40784143 209.51171177 120.37175133 204.49662781 131.14044189 C204.09959656 132.00024658 203.70256531 132.86005127 203.29350281 133.74591064 C192.31594414 155.60639385 172.25237823 169.37109554 149.55912781 177.01544189 C129.4914342 183.48597219 108.69952248 183.48280108 87.80912781 183.76544189 C85.43867255 183.80373524 83.06822951 183.84279298 80.69779968 183.88262939 C74.96418632 183.97735503 69.23049585 184.06273816 63.49662781 184.14044189 C63.48116661 185.84719337 63.48116661 185.84719337 63.46539307 187.58842468 C63.36783644 198.286806 63.26511967 208.98512685 63.15728855 219.68340969 C63.10201282 225.18412157 63.04858552 230.68483872 62.99931335 236.18560791 C62.95173823 241.48945472 62.89939817 246.79323465 62.84368706 252.09700203 C62.82323235 254.1252788 62.80452455 256.15357394 62.78755379 258.18188286 C62.76357849 261.01245673 62.73351494 263.84290294 62.70195007 266.67340088 C62.69619461 267.52072281 62.69043915 268.36804474 62.68450928 269.24104309 C62.61067997 275.02638973 62.61067997 275.02638973 61.49662781 276.14044189 C59.48242056 276.23979189 57.46469929 276.26843696 55.44804382 276.26983643 C54.15322586 276.27298859 52.8584079 276.27614075 51.52435303 276.27938843 C50.09974636 276.27759846 48.67514 276.27554746 47.25053406 276.27325439 C45.79943831 276.27392754 44.34834267 276.27489765 42.89724731 276.27615356 C39.85150584 276.27763051 36.80579363 276.27547641 33.76005554 276.27081299 C29.85132035 276.26512075 25.9426539 276.2683915 22.03392124 276.27438545 C19.03570028 276.27799548 16.03749566 276.27685035 13.03927422 276.27425766 C11.59793528 276.27358935 10.15659487 276.27441348 8.71525764 276.27673721 C6.70170748 276.27927035 4.68815214 276.27472638 2.67460632 276.26983643 C0.95371544 276.26864304 0.95371544 276.26864304 -0.80194092 276.26742554 C-3.50337219 276.14044189 -3.50337219 276.14044189 -5.50337219 275.14044189 C-5.52623746 240.25148437 -5.54386986 205.36252856 -5.55443752 170.47356516 C-5.5556883 166.35902471 -5.55698261 162.24448428 -5.55830383 158.12994385 C-5.55856614 157.31077771 -5.55882845 156.49161157 -5.55909871 155.64762222 C-5.56345563 142.36605016 -5.5713433 129.0844824 -5.58052499 115.8029129 C-5.58986092 102.1851289 -5.59542767 88.56734717 -5.59746069 74.94956011 C-5.59883604 66.53977062 -5.60318729 58.12999331 -5.61128866 49.72020756 C-5.61655538 43.96127717 -5.61817666 38.20235311 -5.61687357 32.44342048 C-5.61623007 29.1157706 -5.61778743 25.78815936 -5.62257767 22.46051025 C-5.62750747 18.86125476 -5.62637313 15.26205259 -5.62362671 11.66279602 C-5.62653955 10.59958903 -5.62945239 9.53638204 -5.6324535 8.44095665 C-5.63046245 7.48451522 -5.6284714 6.52807378 -5.62642002 5.54264927 C-5.62679974 4.71068203 -5.62717946 3.87871478 -5.62757069 3.02153641 C-5.38286075 -0.68480904 -3.19260518 0.01116433 0 0 Z M62.49662781 55.14044189 C62.39691626 57.43555686 62.36862914 59.73378739 62.36723328 62.03106689 C62.36548096 62.75137085 62.36372864 63.4716748 62.36192322 64.21380615 C62.35750492 66.60604224 62.3604426 68.998205 62.36381531 71.39044189 C62.36314226 73.04571548 62.36217223 74.70098896 62.36091614 76.35626221 C62.3594392 79.82990457 62.3615936 83.30352126 62.36625671 86.77716064 C62.371954 91.23976687 62.36867498 95.70231297 62.36268425 100.16491699 C62.35907854 103.5842942 62.36021727 107.00365704 62.36281204 110.42303467 C62.36348128 112.06894945 62.36265299 113.71486552 62.36033249 115.36077881 C62.35780579 117.65716021 62.36164677 119.95344289 62.36723328 122.24981689 C62.36802887 123.55918213 62.36882446 124.86854736 62.36964417 126.21759033 C62.16207198 129.03113574 62.16207198 129.03113574 63.49662781 130.14044189 C65.9994016 130.24176877 68.47387536 130.28011688 70.97709656 130.27325439 C71.7415358 130.27421112 72.50597504 130.27516785 73.2935791 130.27615356 C74.92368145 130.27683638 76.55378649 130.27497507 78.18388367 130.27081299 C80.62869264 130.26556098 83.07330971 130.27070408 85.51811218 130.27716064 C111.23018133 131.07310551 111.23018133 131.07310551 133.49662781 120.14044189 C141.45212557 109.94852737 142.70602638 98.66074061 141.49662781 86.14044189 C139.19739424 73.95189123 133.45650598 65.41732963 123.49662781 58.14044189 C118.1406073 55.11938074 112.63628838 54.01683235 106.53862 54.01104736 C105.58122925 54.0078952 104.6238385 54.00474304 103.63743591 54.00149536 C102.61643799 54.00351959 101.59544006 54.00554382 100.54350281 54.00762939 C99.48753906 54.00667267 98.43157532 54.00571594 97.34361267 54.00473022 C95.1179244 54.00405102 92.89223413 54.00588718 90.66654968 54.0100708 C87.24528106 54.01544401 83.82414246 54.0101061 80.40287781 54.00372314 C78.24141918 54.00438355 76.07996064 54.00566394 73.91850281 54.00762939 C72.88940796 54.00560516 71.86031311 54.00358093 70.80003357 54.00149536 C69.85525146 54.00464752 68.91046936 54.00779968 67.9370575 54.01104736 C67.10164429 54.01184296 66.26623108 54.01263855 65.40550232 54.01345825 C63.48690558 53.93062665 63.48690558 53.93062665 62.49662781 55.14044189 Z " fill="#CA4454" transform="translate(13.503372192382813,8.85955810546875)"/>
<path d="M0 0 C0.99 0 1.98 0 3 0 C3 0.66 3 1.32 3 2 C4.58367747 1.85795259 6.16693318 1.71119847 7.75 1.5625 C8.63171875 1.48128906 9.5134375 1.40007812 10.421875 1.31640625 C12.9450266 1.06019946 12.9450266 1.06019946 15.140625 0.46484375 C17 0 17 0 20 0 C20.042721 1.66611905 20.04063832 3.33382885 20 5 C12.66304145 12.33695855 -16.95746447 8.49335552 -26.6875 8.625 C-29.05795526 8.66329334 -31.4283983 8.70235109 -33.79882812 8.7421875 C-39.53244149 8.83691314 -45.26613196 8.92229626 -51 9 C-51.01030746 10.13783432 -51.02061493 11.27566864 -51.03123474 12.44798279 C-51.12879137 23.14636411 -51.23150814 33.84468495 -51.33933926 44.5429678 C-51.39461499 50.04367968 -51.44804229 55.54439682 -51.49731445 61.04516602 C-51.54488958 66.34901283 -51.59722963 71.65279276 -51.65294075 76.95656013 C-51.67339546 78.98483691 -51.69210326 81.01313205 -51.70907402 83.04144096 C-51.73304932 85.87201484 -51.76311287 88.70246105 -51.79467773 91.53295898 C-51.8004332 92.38028091 -51.80618866 93.22760284 -51.81211853 94.1006012 C-51.88594784 99.88594784 -51.88594784 99.88594784 -53 101 C-54.80927281 101.12487758 -56.62396107 101.17570846 -58.4375 101.1875 C-59.42621094 101.20167969 -60.41492188 101.21585937 -61.43359375 101.23046875 C-64 101 -64 101 -66 99 C-61.71 99 -57.42 99 -53 99 C-53 78.54 -53 58.08 -53 37 C-53.66 36.67 -54.32 36.34 -55 36 C-54.835 35.13375 -54.67 34.2675 -54.5 33.375 C-53.60733769 27.30238178 -53.92360188 21.12033868 -54 15 C-54.66 15 -55.32 15 -56 15 C-55.46684968 11.16131766 -54.62425319 8.86987906 -52 6 C-45.74957971 3.59097918 -38.66583537 3.72394559 -32.0546875 3.8046875 C-31.15879913 3.8075174 -30.26291077 3.81034729 -29.33987427 3.81326294 C-26.51810536 3.8243316 -23.69667067 3.8494099 -20.875 3.875 C-18.94531713 3.88504706 -17.01562921 3.89416986 -15.0859375 3.90234375 C-10.390499 3.92422706 -5.69530588 3.95866248 -1 4 C-0.67 2.68 -0.34 1.36 0 0 Z " fill="#A4373D" transform="translate(128,184)"/>
<path d="M0 0 C1.14726563 0.05220703 2.29453125 0.10441406 3.4765625 0.15820312 C6.27640963 0.28652945 9.07577156 0.42141889 11.875 0.5625 C11.875 1.5525 11.875 2.5425 11.875 3.5625 C8.5625 5.1875 8.5625 5.1875 4.875 6.5625 C3.885 5.9025 2.895 5.2425 1.875 4.5625 C-1.99534767 4.26478095 -4.80461447 4.45570482 -8.5 5.6875 C-12.67957266 6.69636237 -14.923486 6.10993699 -18.9140625 4.77734375 C-21.22396143 4.40677825 -21.22396143 4.40677825 -23.7219696 5.38520813 C-26.54111903 7.93952918 -26.51931467 8.5222118 -26.76423645 12.17521667 C-26.79658431 14.17800326 -26.80109245 16.18134773 -26.78442383 18.18432617 C-26.79490753 19.27716415 -26.80539124 20.37000214 -26.81619263 21.49595642 C-26.84504436 25.1160791 -26.83863883 28.73525123 -26.83203125 32.35546875 C-26.84514006 34.862261 -26.86044174 37.36904266 -26.87785339 39.87580872 C-26.91372495 45.80438372 -26.92744328 51.73274906 -26.9304778 57.66140777 C-26.9356249 65.07322059 -26.97508009 72.48478328 -27.01367188 79.89648438 C-27.07835774 93.11847499 -27.11246113 106.34036241 -27.125 119.5625 C-27.455 119.5625 -27.785 119.5625 -28.125 119.5625 C-28.29857504 109.06260542 -28.46484913 98.56260747 -28.625 88.0625 C-28.63687725 87.28405857 -28.6487545 86.50561714 -28.66099167 85.70358658 C-29.08138582 57.98811677 -29.25784184 30.2814817 -29.125 2.5625 C-19.44977533 -0.85540665 -10.14900221 -0.51335069 0 0 Z " fill="#D4526C" transform="translate(38.125,9.4375)"/>
<path d="M0 0 C1.48831242 0.00667405 2.97660807 0.01863442 4.46484375 0.03515625 C5.22345703 0.03966797 5.98207031 0.04417969 6.76367188 0.04882812 C8.64326246 0.06064945 10.52281274 0.07858547 12.40234375 0.09765625 C12.40234375 0.42765625 12.40234375 0.75765625 12.40234375 1.09765625 C7.45234375 1.75765625 2.50234375 2.41765625 -2.59765625 3.09765625 C-2.59765625 92.85765625 -2.59765625 182.61765625 -2.59765625 275.09765625 C-3.25765625 275.09765625 -3.91765625 275.09765625 -4.59765625 275.09765625 C-4.62052152 240.20869873 -4.63815391 205.31974291 -4.64872158 170.43077952 C-4.64997236 166.31623907 -4.65126667 162.20169863 -4.65258789 158.0871582 C-4.6528502 157.26799207 -4.65311251 156.44882593 -4.65338277 155.60483658 C-4.65773969 142.32326451 -4.66562736 129.04169676 -4.67480905 115.76012725 C-4.68414498 102.14234326 -4.68971173 88.52456153 -4.69174474 74.90677446 C-4.6931201 66.49698497 -4.69747135 58.08720766 -4.70557272 49.67742192 C-4.71083943 43.91849152 -4.71246072 38.15956746 -4.71115763 32.40063483 C-4.71051413 29.07298496 -4.71207149 25.74537372 -4.71686172 22.41772461 C-4.72179153 18.81846912 -4.72065718 15.21926694 -4.71791077 11.62001038 C-4.72082361 10.55680338 -4.72373645 9.49359639 -4.72673756 8.39817101 C-4.72474651 7.44172957 -4.72275546 6.48528813 -4.72070408 5.49986362 C-4.7210838 4.66789638 -4.72146352 3.83592914 -4.72185475 2.97875077 C-4.49354787 -0.479156 -3.59010608 0.09745131 0 0 Z " fill="#9E3B49" transform="translate(12.59765625,8.90234375)"/>
<path d="M0 0 C14.11230978 4.50448264 25.54846115 21.96400879 32.04711914 34.52685547 C40.21321809 51.47705263 42.14268717 70.35862163 40 89 C39.34 89.66 38.68 90.32 38 91 C38 80.11 38 69.22 38 58 C35.03 58.495 35.03 58.495 32 59 C32 58.01 32 57.02 32 56 C32.66 55.67 33.32 55.34 34 55 C33.67 54.34 33.34 53.68 33 53 C33.33 52.01 33.66 51.02 34 50 C33.67 49.67 33.34 49.34 33 49 C32.95936168 47.33382885 32.957279 45.66611905 33 44 C32.01 43.505 32.01 43.505 31 43 C31 40.69 31 38.38 31 36 C30.01 36 29.02 36 28 36 C24 29.25 24 29.25 24 27 C22.02 26.67 20.04 26.34 18 26 C18.061875 25.05125 18.12375 24.1025 18.1875 23.125 C18.125625 22.09375 18.06375 21.0625 18 20 C17.01 19.34 16.02 18.68 15 18 C15 17.34 15 16.68 15 16 C14.34 16 13.68 16 13 16 C13 15.34 13 14.68 13 14 C12.34 14 11.68 14 11 14 C11 13.34 11 12.68 11 12 C9.68 11.67 8.36 11.34 7 11 C7.33 10.34 7.66 9.68 8 9 C7.34 9 6.68 9 6 9 C5.731875 8.195625 5.46375 7.39125 5.1875 6.5625 C4.795625 5.716875 4.40375 4.87125 4 4 C3.01 3.67 2.02 3.34 1 3 C0.67 2.01 0.34 1.02 0 0 Z " fill="#B94D62" transform="translate(185,28)"/>
<path d="M0 0 C1.03919334 -0.00021904 1.03919334 -0.00021904 2.09938049 -0.0004425 C4.3935965 0.00025521 6.68773173 0.00804097 8.98193359 0.01586914 C10.57091223 0.01773382 12.15989144 0.01915749 13.74887085 0.02015686 C17.93446434 0.02397808 22.12002323 0.033805 26.30560303 0.04486084 C30.57531262 0.05508345 34.8450278 0.0596563 39.11474609 0.06469727 C47.49497032 0.07542761 55.87516641 0.09249931 64.25537109 0.11352539 C64.25537109 0.77352539 64.25537109 1.43352539 64.25537109 2.11352539 C63.25634766 2.17411133 62.25732422 2.23469727 61.22802734 2.29711914 C59.93767578 2.3809082 58.64732422 2.46469727 57.31787109 2.55102539 C56.03009766 2.63223633 54.74232422 2.71344727 53.41552734 2.79711914 C50.39513153 2.76271727 50.39513153 2.76271727 49.25537109 4.11352539 C47.4566037 4.24728303 45.65269716 4.31251772 43.84936523 4.35058594 C42.69469254 4.37698654 41.54001984 4.40338715 40.35035706 4.43058777 C38.46449135 4.46506767 38.46449135 4.46506767 36.54052734 4.50024414 C35.25931503 4.52576859 33.97810272 4.55129303 32.6580658 4.57759094 C29.94193742 4.63062606 27.22576867 4.67954271 24.50952148 4.72607422 C21.02428355 4.78645018 17.53949158 4.86066504 14.05460453 4.93844891 C10.7375663 5.00981787 7.42031538 5.06663196 4.10302734 5.12524414 C2.84780777 5.15430344 1.5925882 5.18336273 0.29933167 5.21330261 C-1.43740562 5.2387188 -1.43740562 5.2387188 -3.20922852 5.26464844 C-4.23213486 5.28383835 -5.2550412 5.30302826 -6.3089447 5.32279968 C-8.74462891 5.11352539 -8.74462891 5.11352539 -10.74462891 3.11352539 C-10.08462891 3.11352539 -9.42462891 3.11352539 -8.74462891 3.11352539 C-8.74462891 2.45352539 -8.74462891 1.79352539 -8.74462891 1.11352539 C-5.82380435 -0.34688689 -3.26161522 -0.00576257 0 0 Z " fill="#B76271" transform="translate(62.74462890625,8.886474609375)"/>
<path d="M0 0 C0.77601562 0.00064453 1.55203125 0.00128906 2.3515625 0.00195312 C8.09362599 0.046813 8.09362599 0.046813 10.375 1.1875 C12.28711485 1.28451521 14.20261419 1.31826232 16.1171875 1.3203125 C17.26574219 1.32160156 18.41429687 1.32289062 19.59765625 1.32421875 C21.40556641 1.31841797 21.40556641 1.31841797 23.25 1.3125 C25.04630859 1.31830078 25.04630859 1.31830078 26.87890625 1.32421875 C28.03003906 1.32292969 29.18117187 1.32164063 30.3671875 1.3203125 C31.42276855 1.31918457 32.47834961 1.31805664 33.56591797 1.31689453 C36.00975951 1.20432404 38.04432499 0.89293725 40.375 0.1875 C41.035 1.5075 41.695 2.8275 42.375 4.1875 C44.36067708 4.12239583 46.34635417 4.05729167 48.33203125 3.9921875 C50.375 4.1875 50.375 4.1875 53.375 6.1875 C55.36299818 6.88914642 57.36198517 7.56122872 59.375 8.1875 C59.045 9.8375 58.715 11.4875 58.375 13.1875 C59.365 13.6825 59.365 13.6825 60.375 14.1875 C56.3135457 14.1875 54.96853379 12.38186814 51.99609375 9.79296875 C44.52672172 5.21783923 36.4461839 4.76195758 27.8984375 4.89453125 C26.84717682 4.89877609 25.79591614 4.90302094 24.71279907 4.90739441 C21.39159317 4.92403861 18.07101906 4.96166386 14.75 5 C12.48308175 5.01506527 10.21615388 5.02875043 7.94921875 5.04101562 C2.42426764 5.07389518 -3.10032102 5.12394991 -8.625 5.1875 C-8.955 7.8275 -9.285 10.4675 -9.625 13.1875 C-9.955 13.1875 -10.285 13.1875 -10.625 13.1875 C-10.8203125 11.13671875 -11.015625 9.0859375 -11.2109375 7.03515625 C-11.34757812 6.42542969 -11.48421875 5.81570312 -11.625 5.1875 C-12.285 4.8575 -12.945 4.5275 -13.625 4.1875 C-11.01055644 -1.04138712 -5.05190398 -0.08052532 0 0 Z " fill="#C04E64" transform="translate(85.625,58.8125)"/>
<path d="M0 0 C1.48831242 0.00667405 2.97660807 0.01863442 4.46484375 0.03515625 C5.22345703 0.03966797 5.98207031 0.04417969 6.76367188 0.04882812 C8.64326246 0.06064945 10.52281274 0.07858547 12.40234375 0.09765625 C12.40234375 0.42765625 12.40234375 0.75765625 12.40234375 1.09765625 C7.45234375 1.75765625 2.50234375 2.41765625 -2.59765625 3.09765625 C-2.92765625 37.74765625 -3.25765625 72.39765625 -3.59765625 108.09765625 C-3.92765625 108.09765625 -4.25765625 108.09765625 -4.59765625 108.09765625 C-4.62098673 94.16386353 -4.63856974 80.23007382 -4.64946842 66.2962656 C-4.65469793 59.82697945 -4.66179681 53.35770636 -4.6730957 46.88842773 C-4.68392217 40.65095325 -4.68993257 34.41349138 -4.69253349 28.17600822 C-4.69438818 25.79045348 -4.69800961 23.40489946 -4.70338631 21.01935005 C-4.71059354 17.69070034 -4.71164733 14.36210346 -4.71118164 11.03344727 C-4.71477692 10.03651352 -4.71837219 9.03957977 -4.72207642 8.01243591 C-4.72070175 7.11074677 -4.71932709 6.20905762 -4.71791077 5.28004456 C-4.71883256 4.49191155 -4.71975435 3.70377855 -4.72070408 2.89176273 C-4.48836845 -0.49582128 -3.50300868 0.0950871 0 0 Z " fill="#A54458" transform="translate(12.59765625,8.90234375)"/>
<path d="M0 0 C0.99 0 1.98 0 3 0 C3 0.66 3 1.32 3 2 C4.58367747 1.85795259 6.16693318 1.71119847 7.75 1.5625 C8.63171875 1.48128906 9.5134375 1.40007812 10.421875 1.31640625 C12.9450266 1.06019946 12.9450266 1.06019946 15.140625 0.46484375 C17 0 17 0 20 0 C20 1.65 20 3.3 20 5 C4.92867323 6.00869742 -10.08670692 6.12010757 -25.1875 6.0625 C-27.50976465 6.05746959 -29.83203036 6.05290944 -32.15429688 6.04882812 C-37.76955508 6.037957 -43.38477232 6.02134368 -49 6 C-46.03045709 4.29720693 -43.91915193 3.75333821 -40.50683594 3.77294922 C-39.62622498 3.77310028 -38.74561401 3.77325134 -37.83831787 3.77340698 C-36.42561615 3.78889084 -36.42561615 3.78889084 -34.984375 3.8046875 C-34.01340881 3.8075174 -33.04244263 3.81034729 -32.04205322 3.81326294 C-28.94457615 3.82444708 -25.8473895 3.84954858 -22.75 3.875 C-20.64844168 3.88503208 -18.54687882 3.89415753 -16.4453125 3.90234375 C-11.29676331 3.92438066 -6.14843087 3.95889855 -1 4 C-0.67 2.68 -0.34 1.36 0 0 Z " fill="#C23B40" transform="translate(128,184)"/>
<path d="M0 0 C1.1810733 0.00007553 2.36214661 0.00015106 3.57901001 0.00022888 C4.85924042 0.00539017 6.13947083 0.01055145 7.45849609 0.01586914 C8.76523285 0.01728409 10.0719696 0.01869904 11.41830444 0.02015686 C14.89369617 0.02397645 18.36904616 0.03380197 21.84442139 0.04486084 C25.39025305 0.05508696 28.93609144 0.05965706 32.48193359 0.06469727 C39.44028408 0.07542473 46.39860683 0.09249447 53.35693359 0.11352539 C53.02693359 0.77352539 52.69693359 1.43352539 52.35693359 2.11352539 C44.82945289 2.2903993 37.30179927 2.45636092 29.7737751 2.60830116 C26.27839959 2.67919431 22.78319 2.75387834 19.28808594 2.8371582 C15.27215607 2.93268326 11.25605001 3.01184064 7.23974609 3.09008789 C5.35221115 3.13838242 5.35221115 3.13838242 3.42654419 3.18765259 C2.26549164 3.2078244 1.10443909 3.22799622 -0.09179688 3.2487793 C-1.63068069 3.28208847 -1.63068069 3.28208847 -3.20065308 3.31607056 C-5.64306641 3.11352539 -5.64306641 3.11352539 -7.64306641 1.11352539 C-4.98399057 -0.21601253 -2.97741272 -0.00633492 0 0 Z " fill="#D5526E" transform="translate(59.64306640625,10.886474609375)"/>
<path d="M0 0 C9.5621331 1.60239753 18.4707381 6.56553861 27 11 C27 12.98 27 14.96 27 17 C26.34 16.67 25.68 16.34 25 16 C24.67 16.33 24.34 16.66 24 17 C23.34 15.68 22.68 14.36 22 13 C21.01 13 20.02 13 19 13 C18.67 11.68 18.34 10.36 18 9 C14.71303767 8.20046862 13.28976808 7.90341064 10 9 C6.96983561 8.03921617 5.26185454 7.26185454 3 5 C3 4.01 3 3.02 3 2 C2.01 2 1.02 2 0 2 C0 1.34 0 0.68 0 0 Z " fill="#C8526B" transform="translate(157,15)"/>
<path d="M0 0 C1.14726563 0.05220703 2.29453125 0.10441406 3.4765625 0.15820312 C6.27640963 0.28652945 9.07577156 0.42141889 11.875 0.5625 C11.875 1.5525 11.875 2.5425 11.875 3.5625 C8.5625 5.1875 8.5625 5.1875 4.875 6.5625 C3.885 5.9025 2.895 5.2425 1.875 4.5625 C-0.43116628 4.14123335 -0.43116628 4.14123335 -2.9375 4 C-5.70637333 3.77657506 -8.33108913 3.52303612 -11.0625 3 C-15.73996683 2.33179045 -20.40827185 2.48696521 -25.125 2.5625 C-19.67623154 -2.88626846 -7.09971734 -0.35911361 0 0 Z " fill="#D15771" transform="translate(38.125,9.4375)"/>
<path d="M0 0 C4.90862256 1.5131844 8.0507641 4.34171523 11.75 7.75 C12.33910156 8.26304688 12.92820313 8.77609375 13.53515625 9.3046875 C16.48649833 12.00499589 17.84878935 13.42433842 18.890625 17.390625 C18.94476563 18.68226562 18.94476563 18.68226562 19 20 C17.68 19.34 16.36 18.68 15 18 C15 17.34 15 16.68 15 16 C14.34 16 13.68 16 13 16 C13 15.34 13 14.68 13 14 C12.34 14 11.68 14 11 14 C11 13.34 11 12.68 11 12 C9.68 11.67 8.36 11.34 7 11 C7.33 10.34 7.66 9.68 8 9 C7.34 9 6.68 9 6 9 C5.731875 8.195625 5.46375 7.39125 5.1875 6.5625 C4.795625 5.716875 4.40375 4.87125 4 4 C3.01 3.67 2.02 3.34 1 3 C0.67 2.01 0.34 1.02 0 0 Z " fill="#C0506A" transform="translate(185,28)"/>
<path d="M0 0 C0.33 0 0.66 0 1 0 C1.33 16.5 1.66 33 2 50 C6.29 50.33 10.58 50.66 15 51 C15 51.33 15 51.66 15 52 C12.54137599 52.05383848 10.0839245 52.09359038 7.625 52.125 C6.92632812 52.14175781 6.22765625 52.15851563 5.5078125 52.17578125 C3.67102514 52.19344267 1.83398037 52.10303261 0 52 C-0.66 51.34 -1.32 50.68 -2 50 C-1.63783264 48.16729736 -1.63783264 48.16729736 -1 46 C-0.88943539 44.44350108 -0.82468028 42.88337464 -0.79467773 41.32324219 C-0.7647599 39.94226349 -0.7647599 39.94226349 -0.73423767 38.53338623 C-0.71752518 37.54783752 -0.70081268 36.56228882 -0.68359375 35.546875 C-0.66281265 34.53151672 -0.64203156 33.51615845 -0.62062073 32.47003174 C-0.55529403 29.23008927 -0.49631863 25.99006652 -0.4375 22.75 C-0.39429874 20.55207507 -0.35068393 18.35415822 -0.30664062 16.15625 C-0.19962993 10.77091794 -0.09783227 5.3855062 0 0 Z " fill="#A54552" transform="translate(75,88)"/>
<path d="M0 0 C-3.26060385 2.1737359 -6.50376951 3.3454124 -10.1875 4.5625 C-10.85789307 4.78574951 -11.52828613 5.00899902 -12.21899414 5.23901367 C-16.85312693 6.73731778 -21.15105816 7.70312601 -26 8 C-26.33 7.34 -26.66 6.68 -27 6 C-26.67 5.34 -26.34 4.68 -26 4 C-23.03 4.495 -23.03 4.495 -20 5 C-20 4.34 -20 3.68 -20 3 C-14.25 2.875 -14.25 2.875 -12 4 C-12 3.34 -12 2.68 -12 2 C-8.09971775 -0.60018816 -4.52565431 -0.15085514 0 0 Z " fill="#BA3D48" transform="translate(174,181)"/>
<path d="M0 0 C1.32 0.33 2.64 0.66 4 1 C4.25729993 5.65921486 3.53839041 8.8553944 1.6875 13.125 C1.04361328 14.64480469 1.04361328 14.64480469 0.38671875 16.1953125 C-0.86952587 18.73611149 -2.21393413 20.81062894 -4 23 C-4 21.35 -4 19.7 -4 18 C-3.34 18 -2.68 18 -2 18 C-2.020625 17.05125 -2.04125 16.1025 -2.0625 15.125 C-2 12 -2 12 -1 10 C-1.89363605 7.39068734 -1.89363605 7.39068734 -3 5 C-1.68 4.34 -0.36 3.68 1 3 C0.67 2.01 0.34 1.02 0 0 Z " fill="#C04E60" transform="translate(219,121)"/>
<path d="M0 0 C6.76989873 -0.32237613 11.70796584 0.58451872 18 3 C19.175625 3.391875 20.35125 3.78375 21.5625 4.1875 C22.366875 4.455625 23.17125 4.72375 24 5 C20.89451593 5.96425989 18.5794695 5.97156073 15.375 5.5 C12.06931465 4.9280374 12.06931465 4.9280374 9 6 C9 5.34 9 4.68 9 4 C8.1646875 4.3403125 8.1646875 4.3403125 7.3125 4.6875 C4.03950399 5.12979676 2.58016648 3.93512486 0 2 C0 1.34 0 0.68 0 0 Z " fill="#C9536E" transform="translate(128,10)"/>
<path d="M0 0 C0.66 0 1.32 0 2 0 C2.92448434 4.65131184 3.07488592 9.01346552 3 13.75 C2.71437659 18.54278093 2.71437659 18.54278093 4 23 C3.34 23.66 2.68 24.32 2 25 C0.97695052 26.65261839 -0.02616054 28.31791365 -1 30 C-2.42758453 27.14483094 -1.28202957 25.31833936 -0.48925781 22.37109375 C0.39068342 18.10662804 0.20692184 13.835556 0.125 9.5 C0.11597656 8.5821875 0.10695312 7.664375 0.09765625 6.71875 C0.07432432 4.47888444 0.04159235 2.23958817 0 0 Z " fill="#A64758" transform="translate(154,91)"/>
<path d="M0 0 C0.495 1.485 0.495 1.485 1 3 C2.32 2.67 3.64 2.34 5 2 C5.495 3.485 5.495 3.485 6 5 C-6.63055626 6.40618519 -19.31196243 6.09640239 -32 6 C-32 5.67 -32 5.34 -32 5 C-24.74 5 -17.48 5 -10 5 C-10 4.34 -10 3.68 -10 3 C-7.03 3 -4.06 3 -1 3 C-0.67 2.01 -0.34 1.02 0 0 Z " fill="#BB3C44" transform="translate(69,278)"/>
<path d="M0 0 C1.78580669 2.67871003 2.3430455 3.99677943 3 7 C3.33 7.99 3.66 8.98 4 10 C3 13 3 13 1 14 C0.66226563 13.31292969 0.32453125 12.62585938 -0.0234375 11.91796875 C-0.46945313 11.01691406 -0.91546875 10.11585937 -1.375 9.1875 C-1.81585938 8.29417969 -2.25671875 7.40085937 -2.7109375 6.48046875 C-4.01866905 3.85443619 -4.01866905 3.85443619 -6 1 C-4 0 -4 0 0 0 Z " fill="#D24E63" transform="translate(151,73)"/>
<path d="M0 0 C1.48831242 0.00667405 2.97660807 0.01863442 4.46484375 0.03515625 C5.22345703 0.03966797 5.98207031 0.04417969 6.76367188 0.04882812 C8.64326246 0.06064945 10.52281274 0.07858547 12.40234375 0.09765625 C12.40234375 0.42765625 12.40234375 0.75765625 12.40234375 1.09765625 C7.45234375 1.75765625 2.50234375 2.41765625 -2.59765625 3.09765625 C-2.92765625 12.33765625 -3.25765625 21.57765625 -3.59765625 31.09765625 C-3.92765625 31.09765625 -4.25765625 31.09765625 -4.59765625 31.09765625 C-4.62231247 26.84351002 -4.64049524 22.58940127 -4.65258789 18.33520508 C-4.65762726 16.88695552 -4.66445878 15.43871108 -4.6730957 13.99047852 C-4.68517872 11.91291037 -4.69088836 9.83540928 -4.6953125 7.7578125 C-4.70054932 6.50621338 -4.70578613 5.25461426 -4.71118164 3.96508789 C-4.54300655 -0.28268935 -4.3804126 0.11890371 0 0 Z " fill="#A85266" transform="translate(12.59765625,8.90234375)"/>
<path d="M0 0 C-0.33 0.66 -0.66 1.32 -1 2 C-6.82125839 2.093223 -12.25305227 1.95782462 -18 1 C-21.66824943 0.9131473 -25.33143829 0.94125079 -29 1 C-22.6350168 -5.3649832 -8.0687048 -1.13261401 0 0 Z " fill="#CC4E68" transform="translate(42,11)"/>
<path d="M0 0 C9.54296875 5.453125 9.54296875 5.453125 10.8125 9.75 C10.874375 10.4925 10.93625 11.235 11 12 C9.68 11.34 8.36 10.68 7 10 C7 9.34 7 8.68 7 8 C6.34 8 5.68 8 5 8 C5 7.34 5 6.68 5 6 C4.34 6 3.68 6 3 6 C3 5.34 3 4.68 3 4 C1.68 3.67 0.36 3.34 -1 3 C-0.67 2.01 -0.34 1.02 0 0 Z " fill="#DA536F" transform="translate(193,36)"/>
<path d="M0 0 C-4.56746512 2.25169623 -8.82277227 2.42423979 -13.8125 2.625 C-14.60076172 2.66367188 -15.38902344 2.70234375 -16.20117188 2.7421875 C-18.1337538 2.83588844 -20.06684376 2.91900779 -22 3 C-22 2.34 -22 1.68 -22 1 C-19.08418447 0.63702296 -16.16774334 0.28431765 -13.25 -0.0625 C-12.0125 -0.2181543 -12.0125 -0.2181543 -10.75 -0.37695312 C-9.95078125 -0.47041016 -9.1515625 -0.56386719 -8.328125 -0.66015625 C-7.5949707 -0.74918213 -6.86181641 -0.83820801 -6.10644531 -0.92993164 C-3.87729995 -1.00408147 -2.12666985 -0.64094299 0 0 Z " fill="#A1414B" transform="translate(136,137)"/>
<path d="M0 0 C3.63 1.32 7.26 2.64 11 4 C10.01 4.99 9.02 5.98 8 7 C2.25 5.25 2.25 5.25 0 3 C0 2.01 0 1.02 0 0 Z " fill="#D75571" transform="translate(160,17)"/>
<path d="M0 0 C0.33 0 0.66 0 1 0 C1 6.6 1 13.2 1 20 C0.67 20 0.34 20 0 20 C0 15.38 0 10.76 0 6 C-0.66 6 -1.32 6 -2 6 C-1.125 1.125 -1.125 1.125 0 0 Z " fill="#C0383F" transform="translate(74,193)"/>
<path d="M0 0 C-1.6209213 1.17232685 -3.24686833 2.3377077 -4.875 3.5 C-5.77992188 4.1496875 -6.68484375 4.799375 -7.6171875 5.46875 C-10 7 -10 7 -12 7 C-11.67 6.01 -11.34 5.02 -11 4 C-10.01 4 -9.02 4 -8 4 C-7.67 3.01 -7.34 2.02 -7 1 C-4.05697101 -0.96201933 -3.48011144 -1.16003715 0 0 Z " fill="#BD4C5D" transform="translate(192,171)"/>
<path d="M0 0 C0.66 0.33 1.32 0.66 2 1 C0.02677065 5.56958375 -1.92236229 8.13463296 -6 11 C-5.39305845 7.84669446 -4.3583335 5.81111133 -2.4375 3.25 C-1.98246094 2.63640625 -1.52742187 2.0228125 -1.05859375 1.390625 C-0.70925781 0.93171875 -0.35992187 0.4728125 0 0 Z " fill="#C24D60" transform="translate(209,149)"/>
<path d="M0 0 C-2.39060851 1.59373901 -4.30828179 2.65297076 -6.9375 3.6875 C-7.60652344 3.95949219 -8.27554688 4.23148438 -8.96484375 4.51171875 C-11.32830338 5.0787676 -12.7192799 4.76024003 -15 4 C-14.01 4 -13.02 4 -12 4 C-12 3.34 -12 2.68 -12 2 C-8.09971775 -0.60018816 -4.52565431 -0.15085514 0 0 Z " fill="#B24751" transform="translate(174,181)"/>
<path d="M0 0 C1.859375 0.296875 1.859375 0.296875 4 1 C6.83257126 5.09149182 8.61838818 7.89829756 8 13 C6.206741 10.3101115 4.53254451 7.58708537 2.875 4.8125 C2.33617187 3.91144531 1.79734375 3.01039062 1.2421875 2.08203125 C0.83226562 1.39496094 0.42234375 0.70789063 0 0 Z " fill="#B14F62" transform="translate(145,74)"/>
<path d="M0 0 C5 2 5 2 6.3125 5 C7 8 7 8 7 10 C6.34 10 5.68 10 5 10 C3.35 6.7 1.7 3.4 0 0 Z " fill="#D54F67" transform="translate(208,54)"/>
<path d="M0 0 C2.31590289 3.47385433 2.26991835 4.96430006 2.25 9.0625 C2.25515625 10.12597656 2.2603125 11.18945312 2.265625 12.28515625 C2 15 2 15 0 17 C-0.19386492 14.35448944 -0.38038267 11.70882217 -0.5625 9.0625 C-0.61857422 8.30775391 -0.67464844 7.55300781 -0.73242188 6.77539062 C-0.86176157 4.85254042 -0.93516912 2.92610452 -1 1 C-0.67 0.67 -0.34 0.34 0 0 Z " fill="#CE4B5E" transform="translate(157,93)"/>
<path d="M0 0 C1.65 0 3.3 0 5 0 C4.01 0.495 4.01 0.495 3 1 C3.33 2.98 3.66 4.96 4 7 C1.525 6.01 1.525 6.01 -1 5 C-0.67 3.35 -0.34 1.7 0 0 Z " fill="#DB4156" transform="translate(51,9)"/>
<path d="M0 0 C3.63 0 7.26 0 11 0 C11.33 1.32 11.66 2.64 12 4 C6.06 2.515 6.06 2.515 0 1 C0 0.67 0 0.34 0 0 Z " fill="#BC5469" transform="translate(125,63)"/>
<path d="M0 0 C1.093125 0.0825 2.18625 0.165 3.3125 0.25 C2.3225 0.91 1.3325 1.57 0.3125 2.25 C0.6425 2.91 0.9725 3.57 1.3125 4.25 C-1.3275 4.25 -3.9675 4.25 -6.6875 4.25 C-4.79150483 0.68106792 -4.16790733 0.28256999 0 0 Z " fill="#BD404A" transform="translate(16.6875,279.75)"/>
<path d="M0 0 C0.33 0.99 0.66 1.98 1 3 C-1.97 5.475 -1.97 5.475 -5 8 C-4.64950425 4.75791433 -4.43778819 3.38472296 -1.9375 1.1875 C-1.298125 0.795625 -0.65875 0.40375 0 0 Z " fill="#C54B5B" transform="translate(198,162)"/>
<path d="M0 0 C0.33 0 0.66 0 1 0 C1.25 2.25 1.25 2.25 1 5 C-1 7.3125 -1 7.3125 -3 9 C-3.66 8.67 -4.32 8.34 -5 8 C-4.19185349 6.66402348 -3.37836819 5.331275 -2.5625 4 C-2.11003906 3.2575 -1.65757812 2.515 -1.19140625 1.75 C-0.79824219 1.1725 -0.40507812 0.595 0 0 Z " fill="#A24755" transform="translate(151,121)"/>
<path d="M0 0 C0.99 0.33 1.98 0.66 3 1 C1.19642667 4.17772443 -0.37886292 6.37886292 -3 9 C-2.01 6.03 -1.02 3.06 0 0 Z " fill="#B23E52" transform="translate(155,112)"/>
<path d="M0 0 C0.99 0.33 1.98 0.66 3 1 C3 1.99 3 2.98 3 4 C1.02 4.33 -0.96 4.66 -3 5 C-3 4.01 -3 3.02 -3 2 C-2.01 1.34 -1.02 0.68 0 0 Z " fill="#D44E68" transform="translate(220,82)"/>
<path d="M0 0 C0 0.99 0 1.98 0 3 C-3.13498292 4.85776765 -5.37471432 5.20140476 -9 5 C-2.40909091 0 -2.40909091 0 0 0 Z " fill="#AB4451" transform="translate(145,131)"/>
<path d="M0 0 C0.99 0 1.98 0 3 0 C4 3 4 3 3 6 C2.34 6 1.68 6 1 6 C1 5.34 1 4.68 1 4 C0.01 3.67 -0.98 3.34 -2 3 C-1.34 2.67 -0.68 2.34 0 2 C0 1.34 0 0.68 0 0 Z " fill="#D54258" transform="translate(155,87)"/>
<path d="M0 0 C1.32 0 2.64 0 4 0 C3.67 0.99 3.34 1.98 3 3 C0.4375 4.1875 0.4375 4.1875 -2 5 C-1.34 3.35 -0.68 1.7 0 0 Z " fill="#C73D4C" transform="translate(186,168)"/>
<path d="M0 0 C1.9375 0.8125 1.9375 0.8125 4 2 C4.33 2.99 4.66 3.98 5 5 C5.66 5.33 6.32 5.66 7 6 C4 6 4 6 1.8125 4.125 C0 2 0 2 0 0 Z " fill="#B35366" transform="translate(139,67)"/>
<path d="M0 0 C1.98 0 3.96 0 6 0 C5.67 1.32 5.34 2.64 5 4 C4.67 3.34 4.34 2.68 4 2 C2.68 2.33 1.36 2.66 0 3 C0 2.01 0 1.02 0 0 Z " fill="#D55570" transform="translate(133,12)"/>
</svg>
