<?xml version="1.0" encoding="UTF-8"?>
<svg version="1.1" xmlns="http://www.w3.org/2000/svg" width="292" height="353">
<path d="M0 0 C2.13237 -0.37752342 2.13237 -0.37752342 4.8269043 -0.38095093 C5.84699585 -0.3894104 6.8670874 -0.39786987 7.91809082 -0.40658569 C9.60412415 -0.39747665 9.60412415 -0.39747665 11.32421875 -0.38818359 C12.50504028 -0.39344055 13.68586182 -0.39869751 14.90246582 -0.40411377 C18.15150943 -0.41508636 21.40018875 -0.41246434 24.64922714 -0.40297651 C28.06279003 -0.39537488 31.47632871 -0.40242953 34.88989258 -0.40713501 C40.64018098 -0.41260295 46.3903541 -0.40538622 52.140625 -0.39111328 C58.74440505 -0.37490871 65.34790544 -0.37998116 71.95167828 -0.3965925 C77.64369654 -0.4103274 83.33563179 -0.4120655 89.02766132 -0.40427649 C92.41638551 -0.39964907 95.80497975 -0.39883369 99.19369507 -0.40888596 C116.79066507 -0.44465843 134.26696014 -0.30953656 151.0625 5.625 C151.79307617 5.87878418 152.52365234 6.13256836 153.27636719 6.39404297 C177.55198896 15.19643137 195.52868414 30.73432183 207 54 C211.14379966 63.41009694 214.30193042 72.56223366 214.3359375 82.91015625 C214.3425943 83.64012314 214.3492511 84.37009003 214.35610962 85.12217712 C214.36616674 86.65914421 214.37092881 88.19615434 214.37060547 89.7331543 C214.37494465 92.03316268 214.41124035 94.3311935 214.44921875 96.63085938 C214.62616248 119.64359789 206.0194008 137.64637866 190.125 154.1875 C167.12674289 176.55662546 134.84153103 182.25316998 103.890625 182.09765625 C102.9197998 182.09664917 101.94897461 182.09564209 100.94873047 182.09460449 C97.38247466 182.08944126 93.81623592 182.07548108 90.25 182.0625 C78.24625 182.0315625 78.24625 182.0315625 66 182 C66 212.36 66 242.72 66 274 C63.19725795 275.40137103 60.9402314 275.07618163 57.80615234 275.02172852 C56.50495453 275.00163223 55.20375671 274.98153595 53.86312866 274.96083069 C52.43739618 274.93363216 51.01166583 274.90632135 49.5859375 274.87890625 C48.13148733 274.85460795 46.6770295 274.83076424 45.2225647 274.80735779 C41.39200117 274.74448794 37.56157304 274.67542958 33.73114014 274.60510254 C29.82342705 274.53444524 25.91561787 274.46961271 22.0078125 274.40429688 C14.33843539 274.27524717 6.66919196 274.13966266 -1 274 C-2.18526346 271.62947308 -2.12634792 270.2059281 -2.12863445 267.56121159 C-2.1318589 266.62204618 -2.13508335 265.68288077 -2.1384055 264.7152558 C-2.1368569 263.67646275 -2.1353083 262.6376697 -2.13371277 261.56739807 C-2.13597833 260.46933033 -2.13824388 259.3712626 -2.14057809 258.23992008 C-2.14694231 254.53566865 -2.14608718 250.83145358 -2.14526367 247.12719727 C-2.14825364 244.4815558 -2.15162715 241.83591725 -2.15544128 239.1902771 C-2.1637592 232.73518627 -2.16649664 226.28010456 -2.16705366 219.82500882 C-2.16752826 214.5800383 -2.16958021 209.3350708 -2.17275429 204.09010124 C-2.18156381 189.23131786 -2.18617317 174.3725417 -2.18542381 159.51375569 C-2.18538386 158.71217285 -2.1853439 157.91059002 -2.18530273 157.0847168 C-2.18526185 156.28215936 -2.18522097 155.47960192 -2.18517885 154.65272456 C-2.18477225 141.64098148 -2.19434458 128.62926733 -2.2084411 115.61753262 C-2.22278923 102.26861626 -2.22971216 88.91971402 -2.22884732 75.57078975 C-2.22851482 68.07176839 -2.23128513 60.57277734 -2.24202538 53.07376289 C-2.25110983 46.68976309 -2.25332261 40.30580735 -2.24651595 33.9218039 C-2.24324035 30.66272878 -2.24430828 27.4037563 -2.2518692 24.14468575 C-2.25952743 20.61624217 -2.25498543 17.0880239 -2.24723816 13.55958557 C-2.25238172 12.52302324 -2.25752529 11.48646092 -2.26282471 10.41848761 C-2.25822592 9.47671445 -2.25362712 8.53494129 -2.24888897 7.56462955 C-2.24910634 6.74969471 -2.24932371 5.93475987 -2.24954766 5.09513003 C-2 3 -2 3 0 0 Z M66 54 C65.90028845 56.29511496 65.87200134 58.59334549 65.87060547 60.890625 C65.86885315 61.61092896 65.86710083 62.33123291 65.86529541 63.07336426 C65.86087712 65.46560034 65.86381479 67.8577631 65.8671875 70.25 C65.86651445 71.90527358 65.86554442 73.56054707 65.86428833 75.21582031 C65.86281139 78.68946267 65.86496579 82.16307937 65.86962891 85.63671875 C65.8753262 90.09932498 65.87204717 94.56187108 65.86605644 99.0244751 C65.86245073 102.4438523 65.86358946 105.86321515 65.86618423 109.28259277 C65.86685348 110.92850756 65.86602518 112.57442363 65.86370468 114.22033691 C65.86117798 116.51671831 65.86501897 118.81300099 65.87060547 121.109375 C65.87140106 122.41874023 65.87219666 123.72810547 65.87301636 125.07714844 C65.66544417 127.89069384 65.66544417 127.89069384 67 129 C69.92719127 129.1139693 72.82977776 129.16420827 75.7578125 129.16796875 C76.65305634 129.17129715 77.54830017 129.17462555 78.47067261 129.17805481 C80.37904343 129.18313483 82.2874232 129.18546281 84.19580078 129.18530273 C87.06428658 129.18745446 89.93236543 129.20549984 92.80078125 129.22460938 C115.85616146 129.83452397 115.85616146 129.83452397 136.0234375 120.24609375 C144.25584914 111.64895502 146.09033283 101.61422152 146 90 C145.35297628 78.93176451 141.33413678 68.06007671 132.99609375 60.46484375 C126.60028115 55.77124351 119.91295307 52.87781476 111.97192383 52.87060547 C110.47566216 52.86587723 110.47566216 52.86587723 108.94917297 52.86105347 C107.34431282 52.86408981 107.34431282 52.86408981 105.70703125 52.8671875 C104.60526047 52.86623077 103.50348969 52.86527405 102.36833191 52.86428833 C100.0425104 52.86360832 97.71668699 52.86545012 95.39086914 52.86962891 C91.8158751 52.87499493 88.24100583 52.86966999 84.66601562 52.86328125 C82.40885389 52.86394176 80.15169223 52.86522237 77.89453125 52.8671875 C76.81855179 52.86516327 75.74257233 52.86313904 74.63398743 52.86105347 C73.64593613 52.86420563 72.65788483 52.86735779 71.63989258 52.87060547 C70.76593338 52.87140106 69.89197418 52.87219666 68.99153137 52.87301636 C66.99995626 52.7798175 66.99995626 52.7798175 66 54 Z " fill="#F8F8F8" transform="translate(41,37)"/>
<path d="M0 0 C10.95015457 0.39107695 21.37439431 5.00007418 31 10 C27.00343918 11.33218694 24.86321219 9.87595253 21.25 8.1875 C16.54311789 6.0429141 12.00191043 4.32316254 7 3 C4.66666667 2.33333333 2.33333333 1.66666667 0 1 C0 0.67 0 0.34 0 0 Z " fill="#595959" transform="translate(178,40)"/>
<path d="M0 0 C1.41750563 0.11509661 2.83401169 0.24253658 4.25 0.375 C5.03890625 0.44460937 5.8278125 0.51421875 6.640625 0.5859375 C9.085877 1.01507113 10.84836903 1.78600638 13 3 C13 3.33 13 3.66 13 4 C8.07284004 4.46192125 4.49267375 2.8275283 0 1 C0 0.67 0 0.34 0 0 Z " fill="#777777" transform="translate(178,40)"/>
</svg>
